<?xml version="1.0" standalone="no"?>
<!DOCTYPE svg PUBLIC "-//W3C//DTD SVG 20010904//EN"
 "http://www.w3.org/TR/2001/REC-SVG-20010904/DTD/svg10.dtd">
<svg version="1.0" xmlns="http://www.w3.org/2000/svg"
 width="616.000000pt" height="616.000000pt" viewBox="0 0 616.000000 616.000000"
 preserveAspectRatio="xMidYMid meet">
<metadata>
Created by potrace 1.14, written by Peter Selinger 2001-2017
</metadata>
<g transform="translate(0.000000,616.000000) scale(0.100000,-0.100000)"
fill="#000000" stroke="none">
<path d="M4630 6149 c-102 -20 -261 -125 -358 -237 -31 -36 -73 -84 -92 -105
l-36 -39 -140 45 c-163 53 -367 99 -544 123 -159 22 -566 25 -720 5 -244 -31
-501 -93 -709 -172 -107 -41 -358 -160 -462 -220 l-56 -32 -94 83 c-179 158
-336 265 -381 258 -14 -2 -30 -17 -41 -38 -39 -74 2 -282 89 -459 l57 -113
-120 -117 c-336 -328 -553 -653 -719 -1078 -130 -331 -195 -688 -195 -1068 0
-332 42 -611 137 -907 330 -1028 1199 -1806 2249 -2012 225 -45 298 -51 590
-51 301 1 406 11 635 61 1151 256 2050 1170 2279 2319 69 345 75 752 15 1095
-85 492 -301 969 -617 1362 -83 104 -272 301 -360 376 l-49 41 11 88 c38 308
-33 657 -153 748 -57 43 -137 60 -216 44z m-1157 -459 c193 -29 491 -103 485
-121 -6 -14 -105 -115 -184 -186 -44 -39 -103 -82 -131 -97 -29 -14 -53 -28
-53 -31 0 -24 27 -55 48 -55 25 0 89 -26 98 -41 2 -5 -4 -26 -16 -48 -24 -47
-24 -51 -7 -51 8 0 28 16 46 36 31 33 36 35 87 32 43 -2 54 -6 54 -20 0 -57
32 -62 79 -14 27 27 33 41 29 65 -4 29 -3 30 42 36 35 5 62 19 119 65 83 66
157 108 256 146 103 38 87 23 -21 -21 -52 -21 -129 -61 -169 -88 -71 -47 -145
-116 -145 -136 0 -5 15 -14 34 -21 31 -10 41 -7 133 39 107 54 241 97 325 105
39 4 30 1 -34 -13 -125 -27 -180 -47 -289 -102 -110 -56 -159 -100 -143 -127
6 -9 28 -27 50 -39 l39 -22 16 21 c17 21 17 21 55 3 22 -10 71 -22 109 -25 39
-4 59 -8 45 -9 -21 -1 -16 -7 35 -39 33 -21 66 -46 74 -55 12 -15 10 -17 -23
-17 -46 0 -46 -11 2 -44 26 -18 51 -26 79 -26 35 0 46 -6 73 -37 61 -69 90
-178 51 -191 -10 -3 -12 3 -6 26 7 35 -33 138 -66 168 -17 15 -24 16 -54 5
-31 -11 -38 -9 -87 17 -82 46 -155 49 -253 12 l-27 -10 26 -27 c14 -14 26 -30
26 -35 0 -5 23 -47 52 -94 l51 -84 -18 -73 -18 -73 27 -43 c22 -34 25 -45 15
-52 -11 -6 -9 -13 8 -31 11 -13 28 -38 37 -55 9 -18 21 -33 26 -33 5 0 34 -20
64 -45 31 -25 61 -45 66 -45 6 0 28 -11 48 -25 20 -14 40 -25 44 -25 4 0 30
-13 58 -30 57 -34 56 -36 35 77 -8 43 -15 101 -15 128 1 54 21 163 36 186 5 8
9 61 10 119 2 98 5 117 59 285 31 99 60 184 62 188 12 20 239 -228 360 -393
106 -145 157 -231 242 -401 144 -289 233 -588 272 -914 16 -129 16 -472 0
-600 -75 -619 -329 -1162 -745 -1592 -372 -386 -800 -635 -1311 -763 -215 -54
-349 -72 -588 -78 -310 -7 -547 21 -822 98 -206 58 -515 188 -515 217 0 7 11
18 25 23 14 5 25 14 25 20 0 13 -94 58 -232 111 -60 22 -108 44 -108 49 0 7
115 38 220 58 25 5 66 24 92 43 43 31 47 38 47 76 1 37 5 45 31 58 35 18 41
41 8 30 -51 -16 -154 -17 -214 -1 -34 9 -72 16 -83 16 -31 0 -180 -59 -200
-79 -13 -13 -26 -15 -60 -9 -69 12 -92 41 -46 58 27 10 32 24 13 36 -7 4 -55
10 -108 13 -86 5 -95 8 -95 26 0 19 7 20 205 20 207 0 250 7 250 39 0 13 -91
46 -129 46 -12 0 -42 5 -67 11 -49 13 -55 36 -8 31 32 -3 264 44 276 56 4 4
-113 7 -260 7 -147 0 -279 3 -293 7 -23 7 -46 34 -36 44 1 2 77 6 167 10 95 3
225 16 305 30 77 12 178 28 225 34 47 6 91 17 98 23 8 6 60 18 115 27 l102 15
-135 23 c-172 30 -182 32 -177 45 2 6 23 15 47 21 24 6 45 16 47 22 2 6 -23
19 -57 28 -66 19 -78 39 -32 57 15 6 84 16 153 21 126 10 126 10 179 -17 52
-26 62 -27 131 -10 21 6 36 -2 81 -38 52 -42 57 -44 106 -39 31 3 52 9 52 17
0 6 -28 27 -61 46 -34 19 -75 46 -92 61 -35 33 -32 32 -88 13 -55 -20 -94 -11
-120 25 -12 15 -55 49 -95 75 -59 37 -90 49 -150 60 -42 7 -81 18 -87 24 -14
14 40 36 113 46 65 9 97 23 128 60 14 16 30 24 40 21 42 -11 112 -19 175 -18
126 3 114 24 -27 51 -101 20 -124 30 -111 51 6 10 57 11 219 6 234 -8 294 1
343 51 23 22 25 30 19 79 -12 107 -72 214 -120 214 -18 0 -42 -29 -53 -64 -5
-16 -17 -34 -27 -40 -14 -9 -23 -4 -50 27 -18 20 -38 37 -44 37 -5 0 -19 -16
-31 -35 -11 -19 -28 -35 -38 -35 -57 0 -360 180 -412 244 -20 23 -58 115 -83
201 -28 91 -29 259 -4 355 25 91 105 183 178 205 113 33 227 13 383 -68 62
-32 102 -64 176 -139 54 -53 100 -94 103 -91 12 12 -59 126 -103 165 -65 58
-109 84 -256 158 -125 63 -130 66 -133 99 -2 19 -1 44 2 57 9 33 64 72 140 98
l64 23 -18 39 c-28 64 -65 78 -205 82 -163 5 -181 0 -229 -72 -43 -64 -40 -76
23 -76 68 0 161 -90 161 -157 0 -30 -3 -33 -42 -43 -79 -19 -111 -32 -183 -76
-100 -61 -107 -70 -115 -161 -8 -85 -52 -193 -79 -193 -8 0 -30 12 -49 27 -42
31 -44 31 -227 -56 -128 -61 -235 -127 -299 -183 l-39 -34 32 -36 c27 -31 31
-43 31 -92 0 -65 8 -85 57 -134 31 -31 35 -39 30 -74 -3 -22 -12 -47 -21 -57
-20 -22 -20 -47 -1 -100 14 -42 10 -134 -15 -268 -12 -67 -138 -319 -194 -387
-36 -45 -44 -63 -50 -112 -14 -123 -19 -145 -35 -165 -16 -20 -17 -19 -62 43
-169 236 -312 532 -394 818 -75 261 -106 482 -105 765 0 347 52 643 166 948
138 371 349 699 630 981 l98 99 23 -74 c48 -155 76 -285 75 -344 -2 -105 -71
-450 -137 -685 -10 -37 -14 -81 -11 -134 l5 -79 83 -24 c79 -23 230 -90 293
-131 25 -16 37 -17 71 -10 35 7 58 26 141 111 55 56 132 147 173 202 92 126
186 232 225 256 l30 19 0 125 c0 141 2 144 70 145 69 2 160 25 163 42 4 19
-31 161 -50 203 -12 30 -13 29 -16 -30 -2 -48 -7 -64 -25 -77 -46 -36 -87 -14
-87 46 0 19 5 26 19 26 14 0 28 24 60 104 22 57 41 116 41 130 0 31 -21 76
-44 95 -14 12 -16 9 -17 -20 l-1 -34 -10 38 c-6 21 -15 36 -22 34 -6 -2 -29
-30 -51 -63 -75 -113 -104 -144 -135 -144 -17 0 -38 9 -49 21 -11 12 -24 18
-29 15 -5 -3 -15 8 -22 24 -7 16 -18 35 -26 41 -12 10 -14 2 -14 -47 l-1 -59
-42 50 c-23 27 -55 63 -71 80 l-28 30 22 -39 c21 -40 60 -134 60 -148 0 -5 -4
-8 -9 -8 -5 0 -25 34 -45 75 -25 53 -62 104 -124 173 -49 53 -99 113 -113 133
-40 60 -206 210 -329 299 -129 92 -143 104 -85 71 120 -69 346 -264 519 -449
51 -54 60 -46 12 12 -20 25 -44 68 -52 95 -9 30 -25 58 -42 71 l-27 21 40 -6
c56 -9 130 -52 161 -92 14 -19 28 -32 31 -30 7 8 -16 47 -48 85 -40 45 -39 76
0 38 32 -31 51 -28 51 10 0 34 14 30 33 -11 11 -23 21 -33 31 -29 13 5 31 34
24 39 -2 1 -49 34 -106 74 -56 39 -102 75 -102 80 0 11 277 143 388 185 231
88 465 139 777 170 101 10 446 -4 578 -24z m727 -194 c0 -2 -17 -15 -37 -27
-21 -13 -67 -50 -103 -83 l-65 -60 50 53 c28 29 72 68 100 87 51 35 55 37 55
30z m337 -62 c-3 -3 -12 -4 -19 -1 -8 3 -5 6 6 6 11 1 17 -2 13 -5z m-569
-166 c-36 -60 -44 -70 -35 -46 8 22 56 98 62 98 3 0 -9 -24 -27 -52z m720 25
c-10 -2 -26 -2 -35 0 -10 3 -2 5 17 5 19 0 27 -2 18 -5z m-3393 -43 c8 -16 25
-39 37 -50 12 -11 17 -20 11 -20 -12 0 -83 81 -83 94 0 17 21 3 35 -24z m28
-101 c168 -147 271 -255 304 -321 38 -74 101 -153 149 -187 43 -30 45 -48 3
-24 -43 25 -139 129 -173 187 -62 106 -150 208 -259 302 -61 53 -113 101 -115
106 -8 19 14 4 91 -63z m117 19 c0 -14 -14 -9 -45 17 l-30 25 38 -17 c20 -9
37 -20 37 -25z m2471 -15 c-12 -20 -14 -14 -5 12 4 9 9 14 11 11 3 -2 0 -13
-6 -23z m-2251 -203 c0 -18 -24 -10 -53 18 -25 23 -28 24 -18 5 6 -12 16 -25
21 -28 12 -8 13 -45 1 -45 -4 0 -20 17 -34 38 -14 20 -40 57 -59 82 l-33 45
42 -34 c48 -38 67 -35 37 7 -43 58 -33 54 30 -11 36 -37 66 -72 66 -77z m2863
13 c-7 -2 -21 -2 -30 0 -10 3 -4 5 12 5 17 0 24 -2 18 -5z m64 -9 c-3 -3 -12
-4 -19 -1 -8 3 -5 6 6 6 11 1 17 -2 13 -5z m-2706 -693 c78 -30 91 -47 92
-119 1 -109 -80 -211 -191 -242 -60 -16 -148 -12 -191 9 -128 66 -208 283
-125 338 50 32 114 43 239 39 93 -2 132 -8 176 -25z m-72 -3315 c21 -23 22
-24 4 -29 -10 -3 -45 -9 -78 -12 -97 -10 -103 -12 -107 -43 -4 -37 -37 -40
-119 -9 -58 22 -68 23 -106 12 -37 -11 -44 -11 -58 5 -9 10 -13 20 -8 23 5 3
58 15 118 26 61 12 133 28 160 35 28 8 77 15 111 15 52 1 64 -3 83 -23z"/>
<path d="M3134 4854 c-17 -21 -41 -60 -52 -86 -15 -35 -26 -48 -42 -48 -20 0
-23 5 -50 78 -15 40 -26 41 -34 1 -9 -45 -26 -25 -26 32 0 73 -17 59 -25 -21
-4 -38 -10 -68 -15 -65 -4 2 -10 30 -13 61 -3 32 -12 61 -19 65 -12 8 -58 13
-58 6 0 -9 -22 -124 -26 -139 -9 -29 -30 -21 -69 26 -45 55 -82 70 -133 53
-28 -9 -38 -18 -40 -37 -2 -14 -12 -32 -22 -40 -16 -13 -17 -24 -11 -98 6 -56
14 -88 26 -102 15 -17 16 -24 5 -50 -10 -25 -10 -36 0 -58 7 -15 15 -67 17
-117 4 -70 13 -111 40 -185 21 -57 36 -117 38 -151 1 -31 11 -91 21 -134 17
-73 23 -82 79 -139 33 -34 81 -75 107 -91 27 -17 48 -35 48 -42 0 -14 142 -86
161 -82 8 2 34 -5 59 -14 44 -17 47 -22 73 -91 32 -85 34 -114 10 -132 -15
-11 -5 -13 71 -14 71 0 91 3 101 17 11 14 21 15 106 4 52 -7 161 -25 243 -42
82 -16 164 -29 181 -29 50 0 121 -25 167 -59 45 -33 65 -29 55 11 -7 26 -86
89 -142 112 -21 9 -61 16 -91 16 -93 0 -78 27 29 51 40 8 64 20 78 37 32 41
39 37 -106 66 -151 30 -375 17 -577 -34 -87 -23 -88 -23 -88 -12 0 7 93 32
245 64 36 7 129 12 230 12 143 0 184 -4 255 -22 l85 -23 22 27 c11 15 33 69
48 119 23 77 26 98 17 124 -21 60 29 52 98 -15 50 -49 116 -69 159 -50 22 9
23 15 18 71 -3 38 -14 78 -31 109 -14 27 -26 54 -26 61 0 32 -64 106 -133 155
-42 28 -88 67 -103 87 -36 48 -100 92 -151 105 -47 11 -73 46 -88 118 -9 43
-22 60 -45 60 -10 0 -72 18 -137 40 -100 33 -125 38 -152 30 -22 -6 -40 -6
-52 1 -18 9 -18 12 -4 39 23 44 20 70 -7 67 -20 -2 -23 2 -20 31 4 34 3 35
-62 36 -37 1 -40 3 -50 41 -11 38 -34 59 -120 110 -10 6 -22 34 -29 64 l-12
55 -31 -40z m629 -525 c23 -10 27 -18 27 -52 0 -38 -1 -39 -22 -25 -25 16 -98
43 -140 52 -31 7 -38 32 -10 40 27 8 114 -1 145 -15z m-409 -9 c43 -11 104
-34 138 -52 l60 -32 -6 -40 c-17 -106 -101 -212 -213 -268 -156 -77 -326 -15
-404 148 -25 53 -29 74 -27 121 l3 58 64 32 c111 55 252 67 385 33z m670 -200
c15 -5 26 -17 26 -28 0 -10 16 -42 35 -72 19 -30 35 -60 35 -67 0 -6 -21 -29
-47 -49 -101 -80 -114 -95 -107 -130 8 -43 -22 -56 -37 -17 -11 30 -10 39 15
95 13 30 13 39 3 47 -6 6 -25 22 -42 35 l-30 25 77 1 c74 0 78 1 84 24 6 27
-9 87 -32 124 -16 25 -15 26 20 12z m-878 -526 c30 -14 52 -30 49 -35 -4 -5
-31 -9 -60 -9 -45 0 -56 4 -65 21 -13 23 -7 49 10 49 6 0 36 -12 66 -26z"/>
<path d="M3293 4224 c-25 -39 -28 -131 -6 -174 24 -47 47 -50 68 -9 23 44 17
159 -9 188 -25 27 -32 26 -53 -5z"/>
<path d="M1191 3607 c1 -56 -5 -87 -20 -122 -12 -26 -21 -51 -21 -55 0 -4 35
-11 78 -15 77 -7 291 -40 325 -51 20 -6 47 12 47 32 0 8 -16 16 -40 20 -22 4
-40 9 -40 12 0 23 27 73 42 78 10 3 18 9 18 14 0 10 -208 113 -270 134 -25 8
-62 17 -83 21 l-37 7 1 -75z"/>
<path d="M1193 3384 c-1 -11 -11 -45 -23 -78 -11 -32 -19 -60 -18 -62 2 -2 33
1 68 6 36 5 120 10 188 10 87 0 121 3 116 11 -3 6 3 24 15 40 l21 28 -37 10
c-79 20 -200 43 -263 48 -59 5 -66 4 -67 -13z"/>
<path d="M1217 3230 c-62 -8 -151 -34 -170 -50 -5 -4 8 -11 27 -14 44 -8 60
-34 45 -73 -6 -15 -17 -35 -25 -45 -14 -15 -14 -19 2 -42 13 -21 15 -39 11
-84 -3 -31 -9 -67 -13 -80 -6 -19 5 -14 70 32 96 69 194 123 324 179 77 33 98
47 90 55 -7 7 -18 12 -25 12 -9 0 -13 17 -13 60 l0 60 -127 -1 c-71 -1 -158
-5 -196 -9z"/>
<path d="M3158 3213 c6 -2 18 -2 25 0 6 3 1 5 -13 5 -14 0 -19 -2 -12 -5z"/>
<path d="M3350 3201 c20 -16 22 -22 11 -30 -10 -6 -1 -13 30 -24 116 -42 182
-48 199 -17 12 23 6 40 -16 40 -8 0 -22 8 -33 19 -14 14 -41 20 -117 25 l-98
8 24 -21z m135 -11 c-3 -5 -20 -10 -36 -10 -18 0 -28 4 -24 10 3 6 20 10 36
10 18 0 28 -4 24 -10z"/>
<path d="M3108 3080 l-20 -25 78 -70 c128 -116 303 -288 310 -304 3 -9 26 -34
51 -56 l45 -40 -7 76 c-6 67 -5 77 10 83 10 3 15 12 11 21 -3 8 -1 17 4 20 5
3 6 13 3 22 -5 13 -2 15 18 9 49 -16 74 -12 77 12 2 12 10 22 20 22 9 0 26 12
38 28 22 26 23 26 37 8 13 -18 37 -15 37 4 0 13 -148 96 -230 128 -127 50
-268 90 -278 80 -6 -6 -17 -6 -30 1 -11 6 -51 10 -88 8 -57 -2 -69 -5 -86 -27z
m107 -15 c17 -14 25 -25 19 -25 -21 0 -84 30 -84 40 0 18 34 10 65 -15z"/>
<path d="M2976 3081 c-3 -4 6 -23 19 -41 14 -19 34 -58 45 -87 11 -29 35 -83
53 -120 19 -38 37 -80 40 -94 l7 -26 120 1 c91 1 120 4 120 14 0 33 -207 217
-338 301 -28 18 -52 37 -52 43 0 5 5 6 12 2 7 -4 8 -3 4 4 -8 14 -23 15 -30 3z"/>
<path d="M2760 2938 c0 -61 -19 -107 -50 -123 -23 -12 -30 -23 -30 -44 0 -16
-9 -36 -21 -47 -16 -15 -20 -26 -15 -53 3 -19 1 -42 -4 -52 -21 -38 20 -67 75
-53 50 13 107 165 109 295 1 48 -3 62 -23 83 -32 34 -41 33 -41 -6z"/>
<path d="M1754 4189 c-14 -15 -19 -39 -22 -92 -3 -77 11 -119 40 -125 45 -9
75 133 41 197 -22 43 -34 47 -59 20z"/>
</g>
</svg>
